Coordinates
version=1
nRows=32
nColumns=12
inDegrees=yes

Units are S.I. units (second, meters, Newtons, ...)
Angles are in degrees

endheader
time	SC_y	SC_z	SC_x	AC_y	AC_z	AC_x	GH_y	GH_z	GH_yy	EL_x	PS_y
       0.0              -48.66          31.69          65.83          54.51          9.424          7.756         -89.98         -13.89          45.25          132.8          89.48
   0.04266              -48.66          31.69          65.82          54.51           9.42          7.753         -89.95         -13.88          45.23          132.8          89.48
   0.08532              -48.66          31.69          65.81          54.51          9.416          7.749         -89.92         -13.86          45.21          132.8          89.48
     0.128              -48.66          31.68           65.8          54.51          9.412          7.745         -89.88         -13.85          45.18          132.8          89.47
    0.1706              -48.66          31.68          65.79          54.51          9.408          7.741         -89.85         -13.83          45.16          132.8          89.47
    0.2133              -48.66          31.67          65.78          54.51          9.403          7.737         -89.81         -13.82          45.13          132.8          89.47
     0.256              -48.66          31.67          65.77           54.5          9.397          7.732         -89.76          -13.8           45.1          132.8          89.47
    0.2986              -48.66          31.66          65.76           54.5          9.392          7.727         -89.72         -13.78          45.06          132.8          89.46
    0.3413              -48.66          31.65          65.74           54.5          9.386          7.722         -89.67         -13.76          45.03          132.8          89.46
    0.3839              -48.66          31.65          65.73           54.5           9.38          7.716         -89.62         -13.74          44.99          132.8          89.46
    0.4266              -48.67          31.64          65.71           54.5          9.373           7.71         -89.57         -13.72          44.95          132.8          89.45
    0.4693              -48.67          31.63           65.7          54.49          9.365          7.704         -89.51         -13.69          44.91          132.8          89.45
    0.5119              -48.67          31.62          65.68          54.49          9.357          7.697         -89.45         -13.66          44.86          132.8          89.44
    0.5546              -48.67          31.62          65.66          54.49          9.349          7.689         -89.38         -13.64          44.81          132.8          89.44
    0.5972              -48.67          31.61          65.64          54.48          9.339          7.681          -89.3          -13.6          44.76          132.8          89.43
    0.6399              -48.67           31.6          65.62          54.48          9.329          7.672         -89.22         -13.57           44.7          132.8          89.43
    0.6826              -48.67          31.58          65.59          54.48          9.318          7.662         -89.14         -13.53          44.64          132.8          89.42
    0.7252              -48.67          31.57          65.57          54.47          9.306          7.651         -89.04         -13.49          44.57          132.8          89.41
    0.7679              -48.68          31.56          65.54          54.47          9.293           7.64         -88.94         -13.45          44.49          132.8          89.41
    0.8105              -48.68          31.54          65.51          54.46          9.279          7.627         -88.82          -13.4          44.41          132.8           89.4
    0.8532              -48.68          31.53          65.47          54.46          9.263          7.613          -88.7         -13.35          44.32          132.7          89.39
    0.8959              -48.68          31.51          65.43          54.45          9.246          7.598         -88.56         -13.29          44.21          132.7          89.38
    0.9385              -48.68          31.49          65.39          54.44          9.227          7.581         -88.41         -13.22           44.1          132.7          89.37
    0.9812              -48.69          31.47          65.34          54.43          9.206          7.562         -88.24         -13.15          43.98          132.7          89.36
     1.024              -48.69          31.44          65.29          54.43          9.182          7.541         -88.05         -13.07          43.84          132.7          89.34
     1.067              -48.69          31.42          65.23          54.42          9.156          7.518         -87.84         -12.99          43.69          132.7          89.33
     1.109               -48.7          31.39          65.17          54.41          9.126          7.491         -87.61         -12.89          43.52          132.7          89.31
     1.152               -48.7          31.35          65.09          54.39          9.093          7.462         -87.35         -12.78          43.33          132.7          89.29
     1.194              -48.71          31.31          65.01          54.38          9.056          7.429         -87.05         -12.65          43.11          132.6          89.27
     1.237              -48.71          31.27          64.92          54.36          9.014          7.391         -86.71         -12.51          42.86          132.6          89.25
      1.28              -48.72          31.22          64.81          54.35          8.965          7.348         -86.33         -12.34          42.58          132.6          89.22
     1.322              -48.72          31.16          64.69          54.33           8.91          7.298         -85.89         -12.16          42.26          132.6          89.19
